<svg xmlns="http://www.w3.org/2000/svg" width="352.455" height="286.114" viewBox="0 0 352.455 286.114">
  <g id="Group_114" data-name="Group 114" transform="translate(0)">
    <path id="Path_945" data-name="Path 945" d="M427.192,367.6v-.849c1.688,0,3.4-.035,5.093-.1l.034.849C430.616,367.566,428.891,367.6,427.192,367.6Zm-5.125-.1c-1.7-.066-3.419-.17-5.117-.3l.067-.846c1.688.133,3.4.234,5.084.3Zm15.369-.313-.067-.846c1.685-.135,3.389-.306,5.067-.509l.1.843c-1.689.2-3.4.376-5.1.512Zm-25.588-.495c-1.693-.2-3.4-.442-5.077-.711l.135-.838c1.665.267,3.362.5,5.043.706Zm35.765-.734-.135-.838c1.665-.269,3.35-.577,5.008-.914l.17.831c-1.67.34-3.367.65-5.043.921Zm-45.886-.891c-1.671-.34-3.353-.715-5-1.119l.2-.825c1.639.4,3.311.775,4.97,1.111Zm55.932-1.153-.2-.824c1.644-.4,3.3-.849,4.919-1.316l.236.816c-1.632.472-3.3.918-4.952,1.326Zm-65.889-1.286c-1.637-.472-3.284-.984-4.9-1.52l.268-.806c1.6.533,3.238,1.041,4.864,1.511Zm75.736-1.566-.269-.806c1.6-.536,3.216-1.111,4.8-1.712l.3.793c-1.591.6-3.216,1.185-4.829,1.724Zm-85.476-1.677c-1.592-.6-3.2-1.248-4.768-1.918l.333-.781c1.561.665,3.154,1.306,4.736,1.9Zm95.047-1.957-.333-.781c1.552-.663,3.11-1.365,4.631-2.089l.365.767c-1.531.728-3.1,1.435-4.662,2.1Zm-104.5-2.071c-1.542-.732-3.088-1.5-4.594-2.3l.4-.751c1.5.786,3.032,1.554,4.563,2.281Zm113.737-2.324-.4-.751c1.495-.787,2.993-1.613,4.451-2.457l.424.734c-1.468.849-2.976,1.682-4.481,2.474Zm-122.829-2.453c-1.479-.855-2.957-1.749-4.392-2.659l.454-.717c1.425.9,2.893,1.792,4.362,2.641Zm131.687-2.674-.454-.717c1.423-.9,2.85-1.846,4.241-2.808l.483.7c-1.4.969-2.837,1.92-4.27,2.827Zm-140.359-2.817c-1.4-.97-2.8-1.98-4.162-3l.509-.679c1.349,1.015,2.74,2.018,4.134,2.981ZM503.6,342.086l-.509-.679c1.346-1.012,2.693-2.069,4.005-3.141l.537.657c-1.32,1.079-2.677,2.143-4.032,3.161Zm-156.981-3.16c-1.318-1.077-2.631-2.2-3.9-3.324l.563-.637c1.266,1.121,2.571,2.233,3.88,3.3ZM511.533,335.6l-.563-.637c1.264-1.121,2.524-2.283,3.742-3.453l.588.612c-1.227,1.177-2.494,2.347-3.767,3.475Zm-172.591-3.48c-1.224-1.176-2.444-2.4-3.626-3.624l.612-.589c1.174,1.221,2.386,2.432,3.6,3.6ZM518.927,328.5l-.612-.589c1.17-1.217,2.334-2.476,3.456-3.742l.637.564c-1.131,1.273-2.3,2.541-3.48,3.767Zm-187.089-3.769c-1.132-1.276-2.249-2.589-3.324-3.9l.657-.537c1.066,1.3,2.177,2.609,3.3,3.875Zm193.893-3.9-.657-.537c1.073-1.311,2.131-2.66,3.147-4.008l.679.509c-1.022,1.358-2.088,2.716-3.168,4.035ZM325.351,316.8c-1.023-1.358-2.032-2.755-3-4.152l.7-.483c.961,1.388,1.963,2.776,2.979,4.125ZM531.9,312.636l-.7-.483c.964-1.394,1.91-2.824,2.816-4.25l.717.454c-.91,1.437-1.864,2.876-2.835,4.28Zm-212.379-4.253c-.91-1.434-1.8-2.907-2.655-4.377l.734-.424c.846,1.46,1.734,2.923,2.637,4.348ZM537.4,303.97l-.734-.424c.849-1.469,1.679-2.971,2.466-4.465l.751.4c-.791,1.5-1.626,3.016-2.482,4.5Zm-223.007-4.444c-.791-1.5-1.562-3.041-2.292-4.574l.767-.365c.725,1.523,1.492,3.052,2.277,4.544Zm227.786-4.644-.767-.365c.727-1.528,1.432-3.094,2.1-4.652l.781.333c-.668,1.567-1.38,3.145-2.111,4.684Zm-232.186-4.59c-.669-1.564-1.313-3.158-1.915-4.741l.793-.3c.6,1.57,1.238,3.156,1.9,4.709Zm236.218-4.861-.794-.3c.6-1.588,1.179-3.207,1.714-4.81l.806.269C547.4,282.2,546.817,283.832,546.211,285.431Zm-239.858-4.708c-.54-1.613-1.055-3.26-1.528-4.894l.815-.236c.471,1.622.982,3.258,1.519,4.861Zm243.106-5.03-.816-.236c.467-1.62.911-3.275,1.316-4.92l.824.2c-.407,1.657-.853,3.323-1.324,4.953ZM303.5,270.877c-.408-1.653-.787-3.335-1.127-5l.832-.17c.34,1.655.714,3.326,1.119,4.968Zm248.409-5.14-.832-.17c.336-1.655.643-3.339.912-5.008l.838.135c-.271,1.682-.58,3.379-.918,5.044Zm-250.462-4.9c-.272-1.676-.514-3.384-.719-5.076l.842-.1c.2,1.681.444,3.377.715,5.042Zm252.091-5.218-.843-.1c.2-1.68.372-3.385.505-5.067l.846.067c-.135,1.693-.306,3.409-.509,5.1Zm-253.322-4.958c-.137-1.7-.242-3.417-.31-5.118l.849-.034c.069,1.689.172,3.4.309,5.084ZM554.351,245.4l-.849-.034c.066-1.691.1-3.4.1-5.093v-.281h.849v.279c0,1.7-.034,3.426-.1,5.129Zm-253.71-4.984h-.849v-.143c0-1.655.032-3.333.1-4.982l.849.033c-.063,1.639-.1,3.3-.1,4.951ZM553.49,234.9c-.07-1.685-.175-3.4-.314-5.083l.846-.069c.139,1.7.245,3.42.315,5.117Zm-252.456-4.664-.846-.066c.133-1.7.3-3.416.5-5.1l.843.1c-.2,1.675-.368,3.38-.5,5.068Zm251.625-5.486c-.2-1.674-.447-3.37-.721-5.041l.838-.137c.275,1.682.519,3.389.724,5.075Zm-250.422-4.626-.838-.134c.269-1.681.576-3.378.913-5.045l.832.17c-.334,1.655-.639,3.342-.907,5.011ZM551.016,214.7c-.34-1.659-.719-3.33-1.125-4.966l.824-.2c.409,1.648.789,3.331,1.132,5Zm-246.764-4.558-.825-.2c.4-1.652.849-3.319,1.318-4.955l.816.235c-.468,1.626-.908,3.282-1.309,4.923Zm244.314-5.326c-.472-1.621-.985-3.256-1.524-4.859l.806-.27c.542,1.613,1.058,3.26,1.533,4.892Zm-241.5-4.459-.806-.268c.537-1.616,1.116-3.246,1.72-4.844l.794.3c-.6,1.587-1.174,3.207-1.708,4.812Zm238.252-5.194c-.6-1.579-1.245-3.162-1.907-4.707l.78-.334c.667,1.555,1.313,3.149,1.92,4.738Zm-234.641-4.356-.781-.332c.667-1.568,1.376-3.145,2.106-4.686l.767.363c-.725,1.531-1.43,3.1-2.092,4.655Zm230.639-4.978c-.727-1.522-1.494-3.05-2.282-4.541l.75-.4c.793,1.5,1.566,3.04,2.3,4.572ZM315.05,181.589l-.752-.394c.791-1.508,1.625-3.022,2.477-4.5l.735.424c-.846,1.468-1.674,2.971-2.46,4.469Zm221.522-4.746c-.849-1.461-1.738-2.923-2.642-4.345l.716-.455c.911,1.432,1.805,2.9,2.66,4.375Zm-216.423-4.086-.717-.454c.911-1.44,1.863-2.88,2.83-4.281l.7.482c-.96,1.392-1.906,2.823-2.811,4.253Zm210.966-4.5c-.963-1.387-1.967-2.775-2.983-4.121l.679-.511c1.024,1.358,2.034,2.752,3,4.149ZM325.939,164.37l-.679-.509c1.023-1.362,2.087-2.72,3.163-4.039l.658.537c-1.069,1.309-2.126,2.659-3.141,4.012Zm199.044-4.229c-1.07-1.306-2.183-2.609-3.305-3.871l.634-.564c1.13,1.271,2.249,2.582,3.328,3.9Zm-192.6-3.665-.637-.562c1.127-1.273,2.3-2.542,3.475-3.771l.612.588c-1.171,1.221-2.334,2.481-3.452,3.746Zm185.839-3.944c-1.175-1.219-2.388-2.429-3.608-3.6l.587-.613c1.227,1.176,2.448,2.393,3.63,3.62Zm-178.789-3.406-.589-.612c1.225-1.179,2.491-2.349,3.764-3.48l.564.637c-1.266,1.122-2.524,2.285-3.741,3.456Zm171.434-3.64c-1.268-1.121-2.575-2.231-3.884-3.3l.536-.658c1.316,1.074,2.631,2.191,3.909,3.32Zm-163.824-3.12-.538-.657c1.316-1.079,2.674-2.144,4.028-3.166l.509.679c-1.345,1.014-2.691,2.072-4,3.143Zm155.924-3.318c-1.354-1.017-2.746-2.018-4.137-2.977l.482-.7c1.4.966,2.8,1.974,4.165,3Zm-147.8-2.809-.484-.7c1.4-.97,2.835-1.922,4.267-2.832l.455.716c-1.422.9-2.848,1.849-4.238,2.813Zm139.408-2.977c-1.431-.9-2.9-1.791-4.365-2.636l.424-.735c1.475.849,2.953,1.743,4.395,2.653Zm-130.823-2.474-.424-.734c1.468-.851,2.974-1.685,4.478-2.478l.4.751c-1.5.788-2.992,1.616-4.45,2.462Zm121.989-2.619c-1.5-.786-3.035-1.551-4.566-2.276l.363-.767c1.541.73,3.088,1.5,4.6,2.292Zm-113-2.122-.365-.767c1.53-.73,3.1-1.439,4.66-2.108l.334.78c-1.551.664-3.109,1.369-4.629,2.094ZM476.52,123.8c-1.56-.663-3.154-1.3-4.738-1.9l.3-.794c1.595.6,3.2,1.246,4.77,1.912Zm-94.44-1.755-.3-.793c1.588-.606,3.212-1.188,4.827-1.729l.27.806c-1.6.536-3.217,1.114-4.794,1.715Zm84.89-1.851c-1.6-.532-3.241-1.038-4.865-1.5l.235-.816c1.635.469,3.283.979,4.9,1.515Zm-75.235-1.387L391.5,118c1.632-.475,3.3-.923,4.951-1.332l.2.824c-1.641.405-3.3.851-4.918,1.323Zm65.447-1.423c-1.639-.4-3.311-.772-4.971-1.106l.168-.832c1.671.336,3.353.711,5,1.113Zm-55.562-1.022-.17-.831c1.664-.34,3.361-.652,5.042-.927l.137.838c-1.671.271-3.356.581-5.01.919Zm45.58-.987c-1.669-.266-3.367-.5-5.044-.7l.1-.843c1.689.2,3.4.437,5.078.705Zm-35.529-.651-.1-.842c1.689-.205,3.4-.382,5.1-.517l.069.846c-1.685.136-3.389.31-5.066.513Zm25.417-.548c-1.683-.131-3.4-.23-5.084-.294l.032-.849c1.7.065,3.423.164,5.118.3ZM421.82,113.9l-.035-.849c1.7-.07,3.422-.107,5.125-.11v.849c-1.691,0-3.4.04-5.091.109Z" transform="translate(-250.982 -112.943)" fill="#ccc"/>
    <path id="Path_139" data-name="Path 139" d="M552.513,457.7H394.621c-7.892-.009-14.319-6.057-14.327-13.484V228.928c.009-7.427,6.436-13.475,14.327-13.484H552.513c7.892.008,14.319,6.057,14.328,13.484V444.219C566.831,451.645,560.4,457.694,552.513,457.7Z" transform="translate(-297.316 -171.939)" fill="#3f3d56"/>
    <path id="Path_140" data-name="Path 140" d="M565.1,464.25H404.07a4.41,4.41,0,0,1-4.634-4.114V253.45a4.41,4.41,0,0,1,4.634-4.114H565.1a4.41,4.41,0,0,1,4.634,4.114V460.136A4.41,4.41,0,0,1,565.1,464.25Z" transform="translate(-308.334 -191.447)" fill="#fff"/>
    <path id="Path_45" data-name="Path 45" d="M565.517,335.867a25.454,25.454,0,0,1-25.466-25.443V310.4c0-.053,0-.109,0-.163a25.466,25.466,0,1,1,25.466,25.628h0Zm0-50.4a24.982,24.982,0,0,0-24.925,24.784c0,.057,0,.1,0,.146a24.931,24.931,0,1,0,24.931-24.93Z" transform="translate(-389.268 -211.936)" fill="#e4e4e4"/>
    <path id="Path_141" data-name="Path 141" d="M474.893,451.874V443.81a1.713,1.713,0,0,0-3.425,0v8.064a3.5,3.5,0,1,0,3.425,0Z" transform="translate(-348.764 -302.394)" fill="#01923f"/>
    <path id="Path_142" data-name="Path 142" d="M476.534,445.405a.586.586,0,0,1,1.167,0v5.2h-1.167Z" transform="translate(-352.71 -303.99)" fill="#fff"/>
    <rect id="Rectangle_212" data-name="Rectangle 212" width="95.954" height="1.133" transform="translate(139.336 147.3)" fill="#e6e6e6" opacity="0.999" style="mix-blend-mode: normal;isolation: isolate"/>
    <circle id="Ellipse_309" data-name="Ellipse 309" cx="2.687" cy="2.687" r="2.687" transform="translate(168.104 145.182)" fill="#01923f"/>
    <rect id="Rectangle_213" data-name="Rectangle 213" width="31.455" height="1.133" transform="translate(139.336 147.3)" fill="#efe307"/>
    <rect id="Rectangle_214" data-name="Rectangle 214" width="95.954" height="1.133" transform="translate(139.336 179.134)" fill="#e6e6e6"/>
    <circle id="Ellipse_310" data-name="Ellipse 310" cx="2.687" cy="2.687" r="2.687" transform="translate(191.872 177.017)" fill="#01923f"/>
    <rect id="Rectangle_215" data-name="Rectangle 215" width="55.481" height="1.133" transform="translate(139.336 179.134)" fill="#efe307"/>
    <rect id="Rectangle_216" data-name="Rectangle 216" width="95.954" height="1.133" transform="translate(139.336 208.851)" fill="#e6e6e6"/>
    <circle id="Ellipse_311" data-name="Ellipse 311" cx="2.687" cy="2.687" r="2.687" transform="translate(218.187 206.729)" fill="#01923f"/>
    <rect id="Rectangle_217" data-name="Rectangle 217" width="81.796" height="1.133" transform="translate(139.336 208.851)" fill="#efe307"/>
    <rect id="Rectangle_218" data-name="Rectangle 218" width="95.954" height="1.133" transform="translate(139.336 238.404)" fill="#e6e6e6"/>
    <circle id="Ellipse_312" data-name="Ellipse 312" cx="2.687" cy="2.687" r="2.687" transform="translate(168.104 236.281)" fill="#01923f"/>
    <rect id="Rectangle_219" data-name="Rectangle 219" width="31.455" height="1.133" transform="translate(139.336 238.404)" fill="#efe307"/>
    <path id="Path_486" data-name="Path 486" d="M947.466,583.366a3.262,3.262,0,0,1-2.739.5h0a3.259,3.259,0,0,1-2.312-3.987q.017-.064.037-.128a3.132,3.132,0,0,1,.179-.447l-6.406-28.762a2.609,2.609,0,0,1,5.011-1.456l0,.017,6.048,28.85a3.255,3.255,0,0,1,.179,5.409Z" transform="translate(-617.234 -362.893)" fill="#cb9898"/>
    <path id="Path_487" data-name="Path 487" d="M975.94,759.618h-3.475l-1.655-13.4h5.129Z" transform="translate(-637.2 -477.435)" fill="#a0616a"/>
    <path id="Path_488" data-name="Path 488" d="M969.79,779.626h-11.2v-.142a4.361,4.361,0,0,1,4.36-4.361h6.844Z" transform="translate(-630.164 -494.074)" fill="#a0616a"/>
    <path id="Path_489" data-name="Path 489" d="M975.94,759.618h-3.475l-1.655-13.4h5.129Z" transform="translate(-637.2 -477.435)" fill="#cb9898"/>
    <path id="Path_490" data-name="Path 490" d="M969.79,779.626h-11.2v-.142a4.361,4.361,0,0,1,4.36-4.361h6.844Z" transform="translate(-630.164 -494.074)" fill="#2f2e41"/>
    <path id="Path_491" data-name="Path 491" d="M896.335,758.1l-3.306-1.07,2.552-13.261,4.881,1.578Z" transform="translate(-592.431 -476.029)" fill="#a0616a"/>
    <path id="Path_492" data-name="Path 492" d="M885.908,776.773l-10.659-3.448.042-.135a4.361,4.361,0,0,1,5.491-2.807h0l6.511,2.106Z" transform="translate(-582.198 -491.223)" fill="#a0616a"/>
    <path id="Path_493" data-name="Path 493" d="M896.335,758.1l-3.306-1.07,2.552-13.261,4.881,1.578Z" transform="translate(-592.431 -476.029)" fill="#cb9898"/>
    <path id="Path_494" data-name="Path 494" d="M885.908,776.773l-10.659-3.448.042-.135a4.361,4.361,0,0,1,5.491-2.807h0l6.511,2.106Z" transform="translate(-582.198 -491.223)" fill="#2f2e41"/>
    <circle id="Ellipse_82" data-name="Ellipse 82" cx="5.862" cy="5.862" r="5.862" transform="translate(313.106 168.166)" fill="#cb9898"/>
    <path id="Path_495" data-name="Path 495" d="M921.12,557.887c.815-3.028-2.918-12.524-3.223-13.729-1.455-.336-4.828.308-6.9-.119-2.948,2.462-5.293,5.981-6.913,7.65-1.685,1.736-2.771,2.912-1.03,6.975a23.331,23.331,0,0,1,1.641,10.083l1.407,12.428s-5.862,16.414-5.393,27.436l-5.393,26.967a3.807,3.807,0,0,0,4.923,1.407s7.738-13.836,7.035-23.918l8.442-18.76s5.862,17.821,7.5,19.463L927.44,639.1s3.986,1.172,5.862,0c0,0,.7-24.387-3.283-28.374,0,0-3.986-16.883-3.048-21.339s1.173-11.256-5.862-17.352c0,0,.07.032-2.11-3.986Z" transform="translate(-593.747 -361.069)" fill="#2f2e41"/>
    <path id="Path_496" data-name="Path 496" d="M931.4,501.171h0a5.071,5.071,0,0,0-.979.1,4.291,4.291,0,0,0-1.867-.431h-.17c-3.272,0-5.923,2.96-5.923,6.612h1.1l.177-1.348.259,1.348h.913a12.923,12.923,0,0,0-.424,3.311v6.732h1.655l.96-2.494-.24,2.494H937.5l.872-2.267-.218,2.267h1.2v-5.284C939.358,506.112,935.793,501.171,931.4,501.171Z" transform="translate(-609.368 -336.203)" fill="#2f2e41"/>
    <path id="Path_497" data-name="Path 497" d="M910.874,590.831a3.262,3.262,0,0,1-2.667-.8h0a3.259,3.259,0,0,1-.238-4.6q.045-.05.091-.1a3.153,3.153,0,0,1,.363-.316l7.428-28.515a2.609,2.609,0,0,1,5.12,1v0l-7.787,28.429a3.255,3.255,0,0,1-2.31,4.894Z" transform="translate(-600.548 -367.027)" fill="#cb9898"/>
    <ellipse id="Ellipse_314" data-name="Ellipse 314" cx="2.062" cy="2.7" rx="2.062" ry="2.7" transform="translate(33.853 280.71)" fill="#f0f0f0"/>
    <path id="Path_143" data-name="Path 143" d="M263.663,671.306a9.889,9.889,0,0,0,0-12.219v0a10.206,10.206,0,0,0,.769-1.132l-5.424-.894,5.865.045a9.916,9.916,0,0,0,.188-7.832l-7.862,4.083,7.254-5.335a9.886,9.886,0,1,0-16.326,11.063A10.09,10.09,0,0,0,247,660.869l7.04,3.657-7.506-2.5a9.892,9.892,0,0,0,1.592,9.281,9.882,9.882,0,0,0,5.953,15.822,3.387,3.387,0,0,0-.2,1.151,3.251,3.251,0,0,0,.433,1.651,6674.9,6674.9,0,0,1,0,6.6,3.252,3.252,0,0,0-.432,1.649c0,1.491.923,2.7,2.062,2.7s2.062-1.209,2.062-2.7a3.366,3.366,0,0,1,0-3.3,3.25,3.25,0,0,0-.433-1.651,3.365,3.365,0,0,0,0-3.3,3.251,3.251,0,0,0,.433-1.651,3.386,3.386,0,0,0-.206-1.17,9.879,9.879,0,0,0,5.866-15.8Z" transform="translate(-220.025 -418.074)" fill="rgba(1,146,63,0.15)"/>
    <path id="Path_1525" data-name="Path 1525" d="M246.02,694.985a9.835,9.835,0,0,0,2.113,6.11,9.883,9.883,0,1,0,15.539,0C265,699.414,246.02,693.876,246.02,694.985Z" transform="translate(-220.033 -447.865)" fill="rgba(1,146,63,0.15)" opacity="0.05"/>
    <path id="Path_144" data-name="Path 144" d="M216.476,714.439l0,0a5.694,5.694,0,0,0,.428-.631l-3.022-.5,3.268.025a5.525,5.525,0,0,0,.1-4.364l-4.38,2.275,4.041-2.971a5.508,5.508,0,1,0-9.1,6.164,5.63,5.63,0,0,0-.628,1l3.922,2.037-4.181-1.393a16.554,16.554,0,0,1,.061,10.513,5.5,5.5,0,0,0,4.144,3.47,1.877,1.877,0,0,0-.114.643,1.844,1.844,0,0,1,0,1.84,221458.466,221458.466,0,0,0,0,3.677,1.844,1.844,0,0,1,0,1.839,1.191,1.191,0,1,0,2.3,0,332684.182,332684.182,0,0,1,0-7.357,1.878,1.878,0,0,0-.118-.653,22.872,22.872,0,0,0,3.274-15.61Z" transform="translate(-197.365 -454.013)" fill="rgba(1,146,63,0.15)"/>
    <path id="Path_145" data-name="Path 145" d="M313.579,734.506l0,0a4.379,4.379,0,0,0,.33-.486l-2.326-.382,2.515.019a4.253,4.253,0,0,0,.081-3.359l-3.371,1.751,3.111-2.288a4.239,4.239,0,1,0-7,4.744,4.322,4.322,0,0,0-.483.767l3.018,1.568-3.218-1.072a12.736,12.736,0,0,1,.047,8.092,4.235,4.235,0,0,0,3.19,2.671,1.447,1.447,0,0,0-.088.495,1.418,1.418,0,0,1,0,1.417,1.418,1.418,0,0,1,0,1.416,1.418,1.418,0,0,1,0,1.414.917.917,0,1,0,1.769,0,65691.773,65691.773,0,0,1,0-4.247,1.441,1.441,0,0,0-.091-.5,17.611,17.611,0,0,0,2.519-12.015Z" transform="translate(-254.557 -466.743)" fill="rgba(1,146,63,0.15)"/>
    <path id="Path_1517" data-name="Path 1517" d="M595.077,230.768a3.318,3.318,0,1,1,2.352-.962A3.318,3.318,0,0,1,595.077,230.768Z" transform="translate(-419.038 -176.939)" fill="#fff"/>
    <path id="Path_944" data-name="Path 944" d="M536.772,785.9H185.264a.427.427,0,1,1,0-.849H536.772a.427.427,0,1,1,0,.849Z" transform="translate(-184.791 -499.785)" fill="#e6e6e6"/>
    <circle id="Ellipse_46" data-name="Ellipse 46" cx="1.698" cy="1.698" r="1.698" transform="translate(122.719 150.818)" fill="#fff"/>
    <path id="Path_146" data-name="Path 146" d="M477.671,520.918a3.614,3.614,0,1,1-7.215,0c0-2.11,3.4-4.244,3.4-8.064C473.851,510.862,477.671,518.809,477.671,520.918Z" transform="translate(-349.208 -342.937)" fill="#01923f"/>
    <path id="Path_147" data-name="Path 147" d="M478.188,525.315a2.168,2.168,0,1,1-4.33,0c0-1.266,2.038-2.547,2.038-4.839C475.9,519.28,478.188,524.049,478.188,525.315Z" transform="translate(-351.167 -347.397)" fill="#fff"/>
    <path id="Path_148" data-name="Path 148" d="M470.8,589.846a5.072,5.072,0,0,0-5.25,4.889,4.813,4.813,0,0,0,2.241,4.032v1.583a.726.726,0,0,0,.75.7h4.517a.726.726,0,0,0,.751-.7h0v-1.583a4.8,4.8,0,0,0,2.245-4.032A5.076,5.076,0,0,0,470.8,589.846Z" transform="translate(-346.39 -387.434)" fill="#01923f"/>
    <path id="Path_149" data-name="Path 149" d="M472.44,592.876a3.908,3.908,0,0,0-4.045,3.767,3.708,3.708,0,0,0,1.727,3.107v1.22a.559.559,0,0,0,.578.54h3.48a.559.559,0,0,0,.579-.539h0v-1.22a3.7,3.7,0,0,0,1.73-3.107A3.911,3.911,0,0,0,472.44,592.876Z" transform="translate(-348.025 -389.178)" fill="#fff"/>
    <path id="Path_150" data-name="Path 150" d="M472.388,617.785a.424.424,0,0,0,0,.849h4.244a.424.424,0,0,0,0-.849Z" transform="translate(-350.079 -403.515)" fill="#01923f"/>
    <path id="Path_151" data-name="Path 151" d="M472.388,621.785a.424.424,0,0,0,0,.849h4.244a.424.424,0,0,0,0-.849Z" transform="translate(-350.079 -405.817)" fill="#01923f"/>
    <path id="Path_152" data-name="Path 152" d="M476.143,659.456l.126-.315a.754.754,0,0,0-.7-1.034h-5.135a.754.754,0,0,0-.754.754v.595Z" transform="translate(-348.764 -426.723)" fill="#01923f"/>
    <path id="Path_153" data-name="Path 153" d="M475.462,667.495h0a.754.754,0,0,1-.7-1.034l.871-2.175h-5.953v4.79a.754.754,0,0,0,.754.754h.826a.754.754,0,0,1,.754.754v3.055a.754.754,0,0,0,1.429.337l2.694-5.389a.754.754,0,0,0-.674-1.091Z" transform="translate(-348.764 -430.279)" fill="#01923f"/>
    <path id="Path_154" data-name="Path 154" d="M470.6,542.785a.637.637,0,0,0,0,1.273h5.942a.637.637,0,0,0,0-1.273Z" transform="translate(-348.928 -360.347)" fill="#01923f"/>
    <path id="Path_155" data-name="Path 155" d="M470.6,548.785a.637.637,0,1,0,0,1.273h5.942a.637.637,0,1,0,0-1.273Z" transform="translate(-348.928 -363.801)" fill="#01923f"/>
    <circle id="Ellipse_47" data-name="Ellipse 47" cx="0.424" cy="0.424" r="0.424" transform="translate(177.697 104.979)" fill="#6c63ff"/>
    <path id="Path_156" data-name="Path 156" d="M595.831,329.218l-11.053-10.2a.424.424,0,0,0-.576,0l-5.054,4.667v-2.071a.424.424,0,0,0-.424-.424h-.849a.424.424,0,0,0-.424.424v3.638l-4.3,3.969a.424.424,0,0,0,.288.736h2.128a.424.424,0,0,1,.424.424v10.352a.424.424,0,0,0,.424.424h16.145a.424.424,0,0,0,.424-.424V330.379a.424.424,0,0,1,.424-.424h2.132a.424.424,0,0,0,.288-.736Zm-13.718,4.467h4.754a.424.424,0,0,1,.424.424v6.2h-5.6v-6.2A.424.424,0,0,1,582.113,333.685Z" transform="translate(-408.242 -231.487)" fill="#01923f"/>
  </g>
</svg>
