<svg xmlns="http://www.w3.org/2000/svg" xmlns:xlink="http://www.w3.org/1999/xlink" width="1921" height="2872.578" viewBox="0 0 1921 2872.578">
  <defs>
    <linearGradient id="linear-gradient" x1="1.04" y1="-0.045" x2="-0.324" y2="1.45" gradientUnits="objectBoundingBox">
      <stop offset="0" stop-color="#01923f"/>
      <stop offset="1" stop-color="#144b34"/>
    </linearGradient>
  </defs>
  <g id="Group_93" data-name="Group 93" transform="translate(0 -989)">
    <g id="Path_8" data-name="Path 8" transform="translate(1 1004)" fill="#01923f" opacity="0.5">
      <path d="M 0.5 2856.892578125 L 0.5 -14.44791984558105 L 983.0489501953125 83.16215515136719 L 983.0989379882812 83.16715240478516 L 983.14892578125 83.16215515136719 L 1919.5 -12.39021778106689 L 1919.5 2856.88232421875 L 982.9824829101562 2542.13720703125 L 982.8267822265625 2542.0849609375 L 982.6707153320312 2542.135009765625 L 0.5 2856.892578125 Z" stroke="none"/>
      <path d="M 1 -13.895751953125 L 1 2856.207275390625 L 982.8306884765625 2541.55859375 L 983.1417846679688 2541.663330078125 L 1919 2856.186767578125 L 1919 -11.83642578125 L 983.0996704101562 83.669677734375 L 982.999267578125 83.65966796875 L 1 -13.895751953125 M 0 -15 L 983.0982055664062 82.66455078125 L 1920 -12.94384765625 L 1920 2857.577880859375 L 982.8232421875 2542.611083984375 L 0 2857.577880859375 L 0 -15 Z" stroke="none" fill="#707070"/>
    </g>
    <g id="Path_3" data-name="Path 3" transform="translate(0 1035)" fill="url(#linear-gradient)">
      <path d="M 0.5 2778.549072265625 L 0.5 -14.46570587158203 L 983.0653686523438 50.49906158447266 L 983.0985717773438 50.50120544433594 L 983.1317749023438 50.49906158447266 L 1919.5 -12.46505832672119 L 1919.5 2778.540771484375 L 982.9603271484375 2511.257568359375 L 982.826416015625 2511.219482421875 L 982.6917724609375 2511.255859375 L 0.5 2778.549072265625 Z" stroke="none"/>
      <path d="M 1 -13.931884765625 L 1 2777.89453125 L 982.8296508789062 2510.7001953125 L 983.0974731445312 2510.77685546875 L 1919 2777.8779296875 L 1919 -11.9306640625 L 983.0989379882812 51.001953125 L 983.0321655273438 50.99755859375 L 1 -13.931884765625 M 0 -15.000244140625 L 983.0982055664062 49.999755859375 L 1920 -13.000244140625 L 1920 2779.202880859375 L 982.8232421875 2511.73828125 L 0 2779.202880859375 L 0 -15.000244140625 Z" stroke="none" fill="#707070"/>
    </g>
  </g>
</svg>
