<svg xmlns="http://www.w3.org/2000/svg" width="645.786" height="488.759" viewBox="0 0 645.786 488.759">
  <g id="Group_111" data-name="Group 111" transform="translate(0.001)">
    <rect id="Rectangle_144" data-name="Rectangle 144" width="55.162" height="35.278" transform="translate(402.427 189.218)" fill="#efe307"/>
    <rect id="Rectangle_145" data-name="Rectangle 145" width="55.162" height="35.278" transform="translate(316.478 244.379)" fill="#efe307"/>
    <path id="Path_11" data-name="Path 11" d="M737.246,269.763V194.717H695.554V145.97H667.331v48.748H625.639v75.046H602.548V101.071H555.725V85.035H493.508V69H431.932V85.035H373.563v16.035H322.891V269.122H295.952V194.076H254.26V145.328H226.037v48.748H184.345v75.046H157.406V535.309h61.576V441.021h42.333v94.288H426.8V425.627h71.839V535.309H598.7v.641h61.576V441.663h42.333v94.288h61.576V269.763ZM179.535,301.834h24.374v19.242H179.535Zm.321,53.879h24.374v19.242H179.855Zm24.694,73.121H180.176V409.592H204.55Zm63.821-173.824H211.926V243.465h56.445Zm0-16.677H211.926V226.788h56.445Zm0-16.677H211.926V210.111h56.445Zm8.018,80.177h24.374v19.242H276.388Zm.321,53.879h24.374v19.242H276.709ZM301.4,428.834H277.03V409.592H301.4Zm99.74-32.071h-44.9V376.88h44.9Zm0-57.086h-44.9V319.794h44.9Zm0-57.086h-44.9V262.708h44.9Zm0-57.086h-44.9V205.622h44.9Zm0-57.086h-44.9V148.536h44.9Zm84.025,228.344h-44.9V376.88h44.9Zm0-57.086h-44.9V319.794h44.9Zm0-57.086h-44.9V262.708h44.9Zm0-57.086h-44.9V205.622h44.9Zm0-57.086h-44.9V148.536h44.9Zm84.025,228.344H524.3V376.88h44.9Zm0-57.086H524.3V319.794h44.9Zm0-57.086H524.3V262.708h44.9Zm0-57.086H524.3V205.622h44.9Zm0-57.086H524.3V148.536h44.9Zm51.634,134.056H645.2v19.242H620.829Zm.321,53.879h24.374V375.6H621.149Zm24.694,73.121H621.47V410.233h24.374Zm63.821-173.824H653.22V244.106h56.445Zm0-16.677H653.22V227.43h56.445Zm0-16.677H653.22V210.753h56.445Zm8.018,80.177h24.374v19.242H717.682ZM718,356.354h24.374V375.6H718ZM742.7,429.476H718.324V410.233H742.7Z" transform="translate(-118.401 -69)" fill="#01923f" opacity="0.15"/>
    <path id="Path_12" data-name="Path 12" d="M216.094,691.255c-.179,2.537-.46,5.375-.894,8.358l7.842-8.7.043.146a22.851,22.851,0,0,0-2.294-5.985l.05.138Z" transform="translate(-139.125 -289.915)" fill="#01923f"/>
    <path id="Path_13" data-name="Path 13" d="M216.642,688.213l4.6-5.852a12.037,12.037,0,0,0-4.113-4.383c-.084-.05-.169-.1-.254-.144C216.9,678.525,217.019,682.583,216.642,688.213Z" transform="translate(-139.642 -287.318)" fill="#01923f"/>
    <path id="Path_14" data-name="Path 14" d="M209.824,725.34q-.3.923-.626,1.812l11.548-6.771.016.17q.362-1.579.6-3.159l-11.531,8.025Z" transform="translate(-136.973 -301.503)" fill="#01923f"/>
    <path id="Path_15" data-name="Path 15" d="M212.678,711.5l10.4-8.578.03.16a35.923,35.923,0,0,0-.892-8.433l-7.991,8.862Q213.6,707.7,212.678,711.5Z" transform="translate(-138.221 -293.349)" fill="#01923f"/>
    <path id="Path_16" data-name="Path 16" d="M206.223,700.355l-12.445-13.886.067-.157a29.992,29.992,0,0,0-2.986,5.257l14.2,15.121C205.547,704.483,205.927,702.346,206.223,700.355Z" transform="translate(-130.396 -290.358)" fill="#01923f"/>
    <path id="Path_17" data-name="Path 17" d="M190.649,694.906h0c.022-.051.042-.108.065-.159Z" transform="translate(-130.321 -293.383)" fill="#6c63ff"/>
    <path id="Path_18" data-name="Path 18" d="M189.533,697.651l-.064.159c.02-.055.044-.1.064-.158Z" transform="translate(-129.898 -294.424)" fill="#6c63ff"/>
    <path id="Path_19" data-name="Path 19" d="M204.516,710.172,190.262,695q-.361.828-.693,1.7l14.568,15.078Q204.337,710.97,204.516,710.172Z" transform="translate(-129.934 -293.472)" fill="#01923f"/>
    <path id="Path_20" data-name="Path 20" d="M221.811,713.854a42.9,42.9,0,0,0,.463-5.764l-10.542,8.694q-.627,2.529-1.379,4.862l11.435-7.958Z" transform="translate(-137.387 -298.168)" fill="#01923f"/>
    <path id="Path_21" data-name="Path 21" d="M186.538,715.752l11.538,15.053a51.594,51.594,0,0,0,2.507-5.652L186.5,710.365a41.5,41.5,0,0,0-.046,5.555Z" transform="translate(-128.793 -298.984)" fill="#01923f"/>
    <path id="Path_22" data-name="Path 22" d="M212.325,677.263l.1-.046a8.14,8.14,0,0,0-7.884.164l7.557,10.264C212.507,681.552,212.328,677.323,212.325,677.263Z" transform="translate(-135.304 -286.759)" fill="#01923f"/>
    <path id="Path_23" data-name="Path 23" d="M207.348,730.041a51.243,51.243,0,0,1-2.266,5.1l11.606-6,.012.167a20.327,20.327,0,0,0,2.035-4.708q.277-.973.5-1.952l-11.686,6.852C207.485,729.675,207.417,729.86,207.348,730.041Z" transform="translate(-135.497 -303.385)" fill="#01923f"/>
    <path id="Path_24" data-name="Path 24" d="M208.883,688.754l-7.73-10.5.072-.15a17.3,17.3,0,0,0-5.567,5.137L208,697.015C208.43,694.066,208.706,691.262,208.883,688.754Z" transform="translate(-132.118 -287.415)" fill="#01923f"/>
    <path id="Path_25" data-name="Path 25" d="M200.8,720.434a69.638,69.638,0,0,0,2.2-7.166l-14.6-15.116q-.522,1.416-.958,2.946a24.953,24.953,0,0,0-.805,4.47l14.159,14.872Z" transform="translate(-128.878 -294.604)" fill="#01923f"/>
    <path id="Path_26" data-name="Path 26" d="M228.739,757.33c-1.757,1.84-3.783,3.847-6.02,5.866l11.587-1.7-.06.14a22.851,22.851,0,0,0,2.051-6.073l-.049.138Z" transform="translate(-141.821 -315.192)" fill="#01923f"/>
    <path id="Path_27" data-name="Path 27" d="M239.486,745.852c-.033-.092-.068-.183-.1-.273-.421.548-2.917,3.75-6.8,7.846l7.274-1.574a12.038,12.038,0,0,0-.372-6Z" transform="translate(-145.358 -311.611)" fill="#01923f"/>
    <path id="Path_28" data-name="Path 28" d="M203.874,781.234q-.822.517-1.638,1l13.213,2.151-.1.141q1.286-.986,2.479-2.048l-14-1.174Z" transform="translate(-134.476 -324.396)" fill="#01923f"/>
    <path id="Path_29" data-name="Path 29" d="M212.37,772.153l13.482.027-.08.142a35.93,35.93,0,0,0,4.692-7.064l-11.807,1.729Q215.5,769.813,212.37,772.153Z" transform="translate(-138.11 -318.667)" fill="#01923f"/>
    <path id="Path_30" data-name="Path 30" d="M205.283,779.316l13.883,1.164-.089.142a42.9,42.9,0,0,0,4.033-4.144l-13.664-.028Q207.351,778,205.283,779.316Z" transform="translate(-135.569 -322.68)" fill="#01923f"/>
    <path id="Path_31" data-name="Path 31" d="M170.663,765.346c.1-.1.2-.208.305-.313a35.689,35.689,0,0,0,8.239-2.354l.377-10.005q.168-.382.326-.769l-.4,10.648a51.592,51.592,0,0,0,5.536-2.754l-1.289-18.6.3-.159,1.288,18.576.013,0a69.639,69.639,0,0,0,6.263-4.117l-1.4-18.3c.1-.073.2-.144.3-.218l1.4,18.3q.668-.495,1.315-1l-1.158-18.529.3-.246,1.159,18.543c1.782-1.389,3.438-2.793,4.936-4.137l-.728-18.633.151-.078c-.517.135-1.043.3-1.573.469A26.3,26.3,0,0,0,199,728.02l-11.717,6.062a39.419,39.419,0,0,1-2.731,4.447c-.209.2-.419.4-.625.6l.015.222c-.1.126-.191.253-.288.377l-.021-.3c-.148.152-.292.312-.438.468a37.025,37.025,0,0,0,3.889-5.945L175.63,719.009c.078,1.336.209,2.68.377,4.014a22.6,22.6,0,0,0-3.84-4.691l.09.115-2.647,7.213c.614,2.469,1.224,5.254,1.733,8.225l4.7-10.548c.021.164.044.328.067.492l-4.693,10.522q.7,4.179,1,8.075l5.632-8.847c.032.127.064.254.1.38l-5.693,8.942q.186,2.6.192,5.051l6.885-9.084.108.35-6.958,9.18-.034-.07q0,.971-.035,1.917l7.766-8.744.115.337-7.9,8.9c-.008.2-.015.392-.025.586a51.27,51.27,0,0,1-.58,5.548l.749-.759q-.213.442-.415.871l-.426.432c-.049.281-.1.555-.158.831q-.236.518-.455,1.012c.141-.631.272-1.265.384-1.905l-15.512-10.671c4.047,10.354,11.668,20.2,12.155,20.827.4-.74.756-1.5,1.086-2.278l.288-.028c-.04.1-.081.189-.121.284l-.146.018.124.034c-.233.543-.474,1.077-.733,1.592.339-.3.854-.785,1.471-1.4,3.648.931,13.474,2.922,21.888-.019l-12.891-2.8a36.05,36.05,0,0,1-8.614,2.44Zm9.058-16.312.309-.313-.018.469-.309.313Z" transform="translate(-117.952 -301.84)" fill="#01923f"/>
    <path id="Path_32" data-name="Path 32" d="M239.144,742.63l.109.03a8.14,8.14,0,0,0-6.177-4.9l-.726,12.725C236.549,746.051,239.108,742.679,239.144,742.63Z" transform="translate(-145.275 -308.806)" fill="#01923f"/>
    <path id="Path_33" data-name="Path 33" d="M197.992,783.461a51.249,51.249,0,0,1-5,2.48l12.769,2.778-.1.136a20.325,20.325,0,0,0,4.57-2.328q.834-.573,1.634-1.181L198.5,783.169C198.33,783.267,198.161,783.366,197.992,783.461Z" transform="translate(-131.163 -325.09)" fill="#01923f"/>
    <path id="Path_34" data-name="Path 34" d="M222.185,756.461c2.21-2,4.212-3.982,5.947-5.8l.743-13.017.151-.069a17.3,17.3,0,0,0-7.564.406Z" transform="translate(-141.371 -308.654)" fill="#01923f"/>
    <path id="Path_35" data-name="Path 35" d="M177.857,716.536a12.038,12.038,0,0,0-5.266-2.9c-.1-.022-.191-.04-.286-.059.238.649,1.606,4.471,2.988,9.942Z" transform="translate(-123.743 -300.137)" fill="#6c63ff"/>
    <path id="Path_36" data-name="Path 36" d="M169.922,737.815l-16.128-9.359.015-.17a29.994,29.994,0,0,0-1.215,5.922l18.18,9.99C170.555,741.95,170.255,739.8,169.922,737.815Z" transform="translate(-116.675 -305.41)" fill="#01923f"/>
    <path id="Path_37" data-name="Path 37" d="M152.545,737.952h0c.005-.056.007-.115.012-.171Z" transform="translate(-116.658 -308.814)" fill="#6c63ff"/>
    <path id="Path_38" data-name="Path 38" d="M152.332,740.906l-.012.171c0-.058.01-.113.012-.171Z" transform="translate(-116.577 -309.935)" fill="#6c63ff"/>
    <path id="Path_39" data-name="Path 39" d="M170.719,748.075l-18.247-10.027q-.088.9-.132,1.834l18.516,9.837Q170.795,748.889,170.719,748.075Z" transform="translate(-116.584 -308.91)" fill="#01923f"/>
    <path id="Path_40" data-name="Path 40" d="M171.377,763.637l-17.96-9.711a41.513,41.513,0,0,0,1.673,5.3l.024-.185,15.626,10.75A51.6,51.6,0,0,0,171.377,763.637Z" transform="translate(-116.971 -314.604)" fill="#01923f"/>
    <path id="Path_41" data-name="Path 41" d="M167.87,713.549l.084-.076a8.14,8.14,0,0,0-7.448,2.593l10.359,7.426C169.369,717.572,167.891,713.606,167.87,713.549Z" transform="translate(-119.512 -300.051)" fill="#6c63ff"/>
    <path id="Path_42" data-name="Path 42" d="M168.845,725.513l-10.6-7.6.023-.165a17.3,17.3,0,0,0-3.707,6.606l16,9.283C170.056,730.706,169.452,727.953,168.845,725.513Z" transform="translate(-117.382 -301.633)" fill="#01923f"/>
    <path id="Path_43" data-name="Path 43" d="M170.979,758.8a69.628,69.628,0,0,0-.125-7.494l-18.562-9.861q-.058,1.508,0,3.1a24.951,24.951,0,0,0,.616,4.5l18.063,9.767Z" transform="translate(-116.557 -310.128)" fill="#01923f"/>
    <path id="Path_44" data-name="Path 44" d="M1072.094,688.255c-.179,2.537-.46,5.375-.894,8.358l7.842-8.7.043.146a22.852,22.852,0,0,0-2.294-5.985l.05.138Z" transform="translate(-446.073 -288.84)" fill="#01923f"/>
    <path id="Path_45" data-name="Path 45" d="M1072.642,685.213l4.6-5.852a12.038,12.038,0,0,0-4.113-4.383c-.084-.05-.169-.1-.254-.144C1072.9,675.525,1073.02,679.583,1072.642,685.213Z" transform="translate(-446.59 -286.243)" fill="#01923f"/>
    <path id="Path_46" data-name="Path 46" d="M1065.824,722.34q-.3.923-.626,1.813l11.548-6.771.016.17q.362-1.579.6-3.159l-11.531,8.025Z" transform="translate(-443.921 -300.428)" fill="#01923f"/>
    <path id="Path_47" data-name="Path 47" d="M1068.678,708.5l10.4-8.578.03.161a35.921,35.921,0,0,0-.892-8.433l-7.991,8.862Q1069.6,704.7,1068.678,708.5Z" transform="translate(-445.169 -292.273)" fill="#01923f"/>
    <path id="Path_48" data-name="Path 48" d="M1062.223,697.355l-12.445-13.886.067-.157a30,30,0,0,0-2.986,5.257l14.2,15.121C1061.547,701.483,1061.927,699.346,1062.223,697.355Z" transform="translate(-437.344 -289.283)" fill="#01923f"/>
    <path id="Path_49" data-name="Path 49" d="M1046.649,691.906h0c.023-.051.042-.108.065-.159Z" transform="translate(-437.269 -292.308)" fill="#6c63ff"/>
    <path id="Path_50" data-name="Path 50" d="M1060.516,707.172,1046.262,692q-.361.828-.693,1.7l14.568,15.078Q1060.337,707.97,1060.516,707.172Z" transform="translate(-436.882 -292.396)" fill="#01923f"/>
    <path id="Path_51" data-name="Path 51" d="M1045.533,694.651l-.064.159c.02-.055.044-.1.064-.158Z" transform="translate(-436.846 -293.348)" fill="#6c63ff"/>
    <path id="Path_52" data-name="Path 52" d="M1077.811,710.854a42.883,42.883,0,0,0,.463-5.764l-10.542,8.694q-.627,2.529-1.379,4.862l11.435-7.958Z" transform="translate(-444.335 -297.092)" fill="#01923f"/>
    <path id="Path_53" data-name="Path 53" d="M1042.538,712.752l11.538,15.053a51.6,51.6,0,0,0,2.507-5.652L1042.5,707.365a41.5,41.5,0,0,0-.046,5.555Z" transform="translate(-435.741 -297.908)" fill="#01923f"/>
    <path id="Path_54" data-name="Path 54" d="M1068.325,674.263l.1-.046a8.14,8.14,0,0,0-7.884.164l7.557,10.264C1068.507,678.552,1068.328,674.323,1068.325,674.263Z" transform="translate(-442.252 -285.684)" fill="#01923f"/>
    <path id="Path_55" data-name="Path 55" d="M1063.348,727.041a51.246,51.246,0,0,1-2.266,5.1l11.606-6,.012.167a20.335,20.335,0,0,0,2.035-4.708q.276-.973.5-1.952l-11.686,6.852C1063.485,726.675,1063.417,726.86,1063.348,727.041Z" transform="translate(-442.445 -302.309)" fill="#01923f"/>
    <path id="Path_56" data-name="Path 56" d="M1064.883,685.754l-7.73-10.5.073-.15a17.3,17.3,0,0,0-5.567,5.137L1064,694.015C1064.43,691.066,1064.706,688.262,1064.883,685.754Z" transform="translate(-439.066 -286.34)" fill="#01923f"/>
    <path id="Path_57" data-name="Path 57" d="M1056.8,717.434a69.657,69.657,0,0,0,2.2-7.166l-14.6-15.116q-.522,1.416-.958,2.946a24.937,24.937,0,0,0-.805,4.47l14.159,14.872Z" transform="translate(-435.826 -293.529)" fill="#01923f"/>
    <path id="Path_58" data-name="Path 58" d="M1084.739,754.33c-1.757,1.84-3.783,3.847-6.02,5.866l11.587-1.7-.06.14a22.849,22.849,0,0,0,2.051-6.073l-.049.138Z" transform="translate(-448.769 -314.116)" fill="#01923f"/>
    <path id="Path_59" data-name="Path 59" d="M1095.486,742.852c-.033-.092-.068-.183-.1-.273-.422.548-2.917,3.75-6.8,7.846l7.274-1.574A12.039,12.039,0,0,0,1095.486,742.852Z" transform="translate(-452.307 -310.535)" fill="#01923f"/>
    <path id="Path_60" data-name="Path 60" d="M1059.874,778.234q-.822.517-1.638,1l13.213,2.151-.1.141q1.286-.986,2.479-2.048l-14-1.174Z" transform="translate(-441.424 -323.32)" fill="#01923f"/>
    <path id="Path_61" data-name="Path 61" d="M1068.37,769.153l13.482.027-.08.142a35.925,35.925,0,0,0,4.692-7.064l-11.807,1.729Q1071.5,766.813,1068.37,769.153Z" transform="translate(-445.058 -317.592)" fill="#01923f"/>
    <path id="Path_62" data-name="Path 62" d="M1061.283,776.316l13.883,1.164-.089.142a42.928,42.928,0,0,0,4.033-4.144l-13.664-.028Q1063.351,775,1061.283,776.316Z" transform="translate(-442.517 -321.605)" fill="#01923f"/>
    <path id="Path_63" data-name="Path 63" d="M1026.663,762.346c.1-.1.2-.208.305-.313a35.692,35.692,0,0,0,8.239-2.354l.377-10.005q.168-.382.326-.769l-.4,10.648a51.582,51.582,0,0,0,5.536-2.754l-1.289-18.6.3-.159,1.288,18.576.012,0a69.637,69.637,0,0,0,6.263-4.117l-1.4-18.3c.1-.073.2-.144.3-.218l1.4,18.3q.668-.495,1.315-1l-1.158-18.529.3-.246,1.159,18.543c1.782-1.389,3.438-2.793,4.936-4.137l-.729-18.633.151-.078c-.517.135-1.043.3-1.573.469A26.282,26.282,0,0,0,1055,725.02l-11.717,6.062a39.406,39.406,0,0,1-2.731,4.447c-.209.2-.419.4-.625.6l.015.222c-.1.126-.191.253-.287.377l-.021-.3c-.148.152-.292.312-.438.468a37.029,37.029,0,0,0,3.889-5.945l-11.454-14.943c.078,1.336.209,2.68.377,4.014a22.6,22.6,0,0,0-3.839-4.691l.09.115-2.647,7.213c.614,2.469,1.224,5.255,1.733,8.225l4.7-10.548c.021.164.044.328.067.492l-4.693,10.522q.7,4.179,1,8.075l5.632-8.847c.032.127.064.254.1.38l-5.693,8.942q.186,2.6.192,5.051l6.885-9.084.108.35-6.958,9.18-.034-.07q0,.971-.035,1.917l7.766-8.744q.062.183.115.337l-7.9,8.9c-.008.2-.015.392-.025.586a51.278,51.278,0,0,1-.58,5.548l.749-.759q-.213.442-.415.871l-.427.432c-.049.281-.1.555-.158.831q-.236.518-.455,1.012c.141-.631.272-1.265.384-1.905l-15.512-10.671c4.047,10.354,11.668,20.2,12.155,20.827.4-.74.756-1.5,1.086-2.278l.288-.028c-.04.1-.081.189-.121.284-.048.005-.1.013-.146.018l.124.034c-.233.543-.474,1.076-.733,1.592.339-.3.854-.785,1.471-1.4,3.648.931,13.474,2.922,21.888-.019l-12.891-2.8A36.047,36.047,0,0,1,1026.663,762.346Zm9.058-16.312.309-.313-.018.469-.309.313Z" transform="translate(-424.901 -300.764)" fill="#01923f"/>
    <path id="Path_64" data-name="Path 64" d="M1095.144,739.63l.109.03a8.14,8.14,0,0,0-6.177-4.9l-.726,12.725C1092.549,743.051,1095.108,739.679,1095.144,739.63Z" transform="translate(-452.223 -307.73)" fill="#01923f"/>
    <path id="Path_65" data-name="Path 65" d="M1053.992,780.461a51.258,51.258,0,0,1-5,2.48l12.769,2.778-.1.136a20.323,20.323,0,0,0,4.57-2.328q.834-.573,1.634-1.181l-13.371-2.176C1054.33,780.267,1054.161,780.366,1053.992,780.461Z" transform="translate(-438.111 -324.014)" fill="#01923f"/>
    <path id="Path_66" data-name="Path 66" d="M1078.185,753.461c2.209-2,4.212-3.982,5.947-5.8l.743-13.017.151-.069a17.3,17.3,0,0,0-7.564.406Z" transform="translate(-448.319 -307.578)" fill="#01923f"/>
    <path id="Path_67" data-name="Path 67" d="M1033.857,713.536a12.038,12.038,0,0,0-5.266-2.9c-.1-.022-.191-.04-.286-.059.237.649,1.606,4.471,2.988,9.942Z" transform="translate(-430.691 -299.061)" fill="#6c63ff"/>
    <path id="Path_68" data-name="Path 68" d="M1025.922,734.815l-16.128-9.359.015-.17a29.992,29.992,0,0,0-1.215,5.922l18.18,9.991C1026.555,738.95,1026.255,736.8,1025.922,734.815Z" transform="translate(-423.623 -304.334)" fill="#6c63ff"/>
    <path id="Path_69" data-name="Path 69" d="M1008.332,737.906l-.012.171c0-.058.01-.113.012-.171Z" transform="translate(-423.525 -308.859)" fill="#6c63ff"/>
    <path id="Path_70" data-name="Path 70" d="M1008.545,734.952h0c.005-.056.007-.115.012-.171Z" transform="translate(-423.606 -307.739)" fill="#6c63ff"/>
    <path id="Path_71" data-name="Path 71" d="M1026.719,745.075l-18.247-10.027q-.088.9-.132,1.834l18.516,9.837Q1026.8,745.889,1026.719,745.075Z" transform="translate(-423.532 -307.834)" fill="#6c63ff"/>
    <path id="Path_72" data-name="Path 72" d="M1027.377,760.637l-17.96-9.711a41.5,41.5,0,0,0,1.673,5.3l.024-.185,15.626,10.75A51.609,51.609,0,0,0,1027.377,760.637Z" transform="translate(-423.919 -313.528)" fill="#6c63ff"/>
    <path id="Path_73" data-name="Path 73" d="M1023.87,710.549l.084-.076a8.14,8.14,0,0,0-7.448,2.593l10.359,7.426C1025.369,714.572,1023.891,710.606,1023.87,710.549Z" transform="translate(-426.461 -298.976)" fill="#6c63ff"/>
    <path id="Path_74" data-name="Path 74" d="M1024.845,722.513l-10.6-7.6.023-.165a17.3,17.3,0,0,0-3.707,6.606l16,9.283C1026.056,727.706,1025.452,724.953,1024.845,722.513Z" transform="translate(-424.33 -300.557)" fill="#6c63ff"/>
    <path id="Path_75" data-name="Path 75" d="M1026.979,755.8a69.612,69.612,0,0,0-.125-7.494l-18.562-9.861q-.058,1.508,0,3.1a24.952,24.952,0,0,0,.616,4.5l18.063,9.767Z" transform="translate(-423.505 -309.052)" fill="#01923f"/>
    <path id="Path_76" data-name="Path 76" d="M60.812,727H667.591v8.682a13.768,13.768,0,0,1-13.768,13.768H74.579a13.768,13.768,0,0,1-13.768-13.768Z" transform="translate(-21.807 -260.691)" fill="#2f2e41"/>
    <rect id="Rectangle_146" data-name="Rectangle 146" width="606.779" height="12.187" transform="translate(39.005 459.254)" fill="#3f3d56"/>
    <path id="Path_77" data-name="Path 77" d="M889.523,126.407l6.969,4.419-4.231-7.693a6.89,6.89,0,0,1,4.214-1.5h.112a8.077,8.077,0,0,0,1.446-.107l2.362,1.5-1.012-1.841a8.406,8.406,0,0,0,4.132-3.136l4.227,2.681-2.67-4.855a12.37,12.37,0,0,1,9.47-4.787c4.4,0,8.311,2.614,10.839,6.687a8.1,8.1,0,0,0,7.165,3.863q.118,0,.236,0c4.853,0,8.786,5.5,8.786,12.289s-3.934,12.289-8.786,12.289a6.593,6.593,0,0,1-3.06-.766,12.68,12.68,0,0,0-10.635-.208,11.086,11.086,0,0,1-9.042.021,12.689,12.689,0,0,0-10.541.2,6.588,6.588,0,0,1-3.028.749c-4.853,0-8.786-5.5-8.786-12.289a15.606,15.606,0,0,1,1.835-7.511Z" transform="translate(-380.268 -84.09)" fill="#f2f2f2"/>
    <path id="Path_78" data-name="Path 78" d="M337.138,185.794l4.433,2.811-2.692-4.894a4.383,4.383,0,0,1,2.681-.957h.071a5.135,5.135,0,0,0,.92-.068l1.5.953-.644-1.171a5.347,5.347,0,0,0,2.628-1.995l2.689,1.705-1.7-3.089a7.869,7.869,0,0,1,6.024-3.045,8.257,8.257,0,0,1,6.895,4.254,5.154,5.154,0,0,0,4.557,2.457l.15,0c3.087,0,5.589,3.5,5.589,7.817s-2.5,7.817-5.589,7.817a4.194,4.194,0,0,1-1.947-.487,8.066,8.066,0,0,0-6.765-.132,7.052,7.052,0,0,1-5.752.013,8.072,8.072,0,0,0-6.705.13,4.191,4.191,0,0,1-1.926.477c-3.087,0-5.589-3.5-5.589-7.817a9.926,9.926,0,0,1,1.167-4.778Z" transform="translate(-182.431 -107.385)" fill="#f2f2f2"/>
    <path id="Path_79" data-name="Path 79" d="M151.138,209.289l4.433,2.811-2.691-4.894a4.383,4.383,0,0,1,2.681-.957h.071a5.137,5.137,0,0,0,.92-.068l1.5.953-.644-1.171a5.347,5.347,0,0,0,2.628-1.995l2.689,1.705-1.7-3.089a7.869,7.869,0,0,1,6.024-3.045,8.257,8.257,0,0,1,6.895,4.254,5.154,5.154,0,0,0,4.557,2.457l.15,0c3.087,0,5.589,3.5,5.589,7.817s-2.5,7.817-5.589,7.817a4.2,4.2,0,0,1-1.947-.487,8.066,8.066,0,0,0-6.765-.132,7.052,7.052,0,0,1-5.752.013,8.072,8.072,0,0,0-6.705.13,4.191,4.191,0,0,1-1.926.477c-3.087,0-5.589-3.5-5.589-7.817A9.926,9.926,0,0,1,151.138,209.289Z" transform="translate(-115.735 -115.81)" fill="#f2f2f2"/>
    <path id="Path_80" data-name="Path 80" d="M400.881,665.864l-.774.774s.258,8.517.516,10.324,1.29,4.9.516,7.226-1.032,4.129-.774,4.387-.258,1.29-.258,1.29l2.065-1.29,3.355-7.743-1.548-8.259Z" transform="translate(-205.43 -283.026)" fill="#144b34"/>
    <path id="Path_82" data-name="Path 82" d="M417.183,787.827s0-2.839-.516-3.355-1.29-2.323-2.323-2.323-4.646,1.032-4.646,1.29a4.714,4.714,0,0,1-.516,2.323c-.516.774-3.355,3.871-.516,4.387a7.21,7.21,0,0,0,5.42-1.29c.258-.258,1.29-.516,1.549-.258S417.183,787.827,417.183,787.827Z" transform="translate(-208.053 -324.724)" fill="#01923f"/>
    <path id="Path_83" data-name="Path 83" d="M433.906,783.614l1.549,2.839s.516,2.581,1.29,2.839h.774s.774,2.839,2.581,2.581,3.871-1.29,3.871-1.807,0-2.065-.774-2.581a36.765,36.765,0,0,1-3.1-2.839l-1.29-1.29Z" transform="translate(-217.55 -325.157)" fill="#01923f"/>
    <path id="Path_84" data-name="Path 84" d="M401.625,635.52a3.482,3.482,0,0,0-1.864,2.607c-.144,1.843,1.678,3.579,1.092,5.332-.333,1-1.369,1.64-1.667,2.646a3.64,3.64,0,0,0,.334,2.362A18.022,18.022,0,0,0,401,651.331c1.088,1.708,2.5,3.329,2.795,5.333a2.276,2.276,0,0,1-.5,2.007,4.814,4.814,0,0,1,1.761-.837,22.409,22.409,0,0,0,7.227-4.025,4.513,4.513,0,0,0,1.671-2.221c.394-1.586-.81-3.172-.694-4.8a12.075,12.075,0,0,1,1.016-2.951,7.624,7.624,0,0,0-.658-5.941,7.088,7.088,0,0,0-4.219-3.669,8.372,8.372,0,0,0-4.263.123A15.665,15.665,0,0,0,401.625,635.52Z" transform="translate(-205.075 -271.602)" fill="#2f2e41"/>
    <path id="Path_85" data-name="Path 85" d="M405.291,656.566a6.7,6.7,0,0,1,5.837-3.522c4.129,0,3.355-.258,3.355-.258l-1.29,5.162-2.581,2.581Z" transform="translate(-207.289 -278.337)" fill="#144b34"/>
    <path id="Path_86" data-name="Path 86" d="M406.855,649.826s2.323,3.871.774,5.42a2.5,2.5,0,0,0-.516,3.355c.258.258,7.484.774,7.484.774l.258-3.613.774-3.1s-4.129-.774-3.613-2.581S406.855,649.826,406.855,649.826Z" transform="translate(-207.79 -277.054)" fill="#cb9898"/>
    <path id="Path_88" data-name="Path 88" d="M433.959,706.731a17.791,17.791,0,0,1-1.032,2.581c-.258.258-1.032-1.807-1.032-1.807l.774-1.807Z" transform="translate(-216.828 -297.31)" fill="#fbbebe"/>
    <path id="Path_89" data-name="Path 89" d="M325.812,620l1.032,5.936H311.359l.774-5.936Z" transform="translate(-111.649 -222.322)" fill="#cb9898"/>
    <circle id="Ellipse_19" data-name="Ellipse 19" cx="4.904" cy="4.904" r="4.904" transform="translate(197 365.03)" fill="#cb9898"/>
    <path id="Path_90" data-name="Path 90" d="M408.336,657.975s-2.839.258-2.839-.258-.258-2.065-.774-1.807-3.871.516-3.613,1.29.774,2.323.258,2.323a1.68,1.68,0,0,0-1.29,2.065c.258,1.29,3.1,9.033,3.1,9.033s.258,2.581,1.032,3.355a2.316,2.316,0,0,1,0,2.839c-.516.516,1.29,1.032,2.065,2.065s6.71.258,6.968,0,6.452-.258,6.968-.774-.258-2.065-.258-2.065a12,12,0,0,1,0-3.1c.258-.774-1.032-13.421-1.807-14.195s2.323-3.1,2.323-3.1-.516-2.065-3.871-2.323c0,0-1.032-1.549-2.065-1.549a10.979,10.979,0,0,0-3.274,1.2s-.6,3.445-1.372,3.7A4.255,4.255,0,0,0,408.336,657.975Z" transform="translate(-205.4 -277.976)" fill="#144b34"/>
    <path id="Path_91" data-name="Path 91" d="M427.779,656.609l1.807.774s5.162,16,4.646,19.1-1.807,13.679-2.581,13.679-2.323-1.549-2.323-1.549v-2.581c0-.516-.774-2.065-.258-2.065s1.29-.516.774-1.032-1.032-1.29-.516-2.065.774-1.032.516-1.807-.774-1.549-.258-2.065-1.29-3.1-1.29-3.1l-2.839-11.356.516-4.646Z" transform="translate(-214.52 -279.707)" fill="#144b34"/>
    <path id="Path_92" data-name="Path 92" d="M419.129,693.722s-9.807-.774-11.1-.774a16.871,16.871,0,0,1-4.186-1.215A22.02,22.02,0,0,0,399,711.272c2.581,12.13,3.1,27.1,4.646,31.487a81.7,81.7,0,0,1,2.581,9.549s2.581-4.646,7.485.516c0,0,.516-3.871-.258-5.42s-1.807-9.807-1.807-9.807-1.807-13.162-1.807-14.711-1.032-14.711-.774-14.969,1.549,10.065,1.807,11.872,1.032,15.743,1.807,17.292,4.387,13.937,6.452,14.711,9.033-.258,8.775-.774-2.065-3.355-2.581-4.129l-2.065-3.1-4.9-16.776,2.323-20.389S421.968,693.464,419.129,693.722Z" transform="translate(-204.837 -292.302)" fill="#2f2e41"/>
    <path id="Path_93" data-name="Path 93" d="M411.547,642h-6.288a1.12,1.12,0,0,1-1.106-.945l-.625-3.958h9.807l-.877,4.165A.931.931,0,0,1,411.547,642Z" transform="translate(-206.656 -272.71)" fill="#2f2e41"/>
    <path id="Path_94" data-name="Path 94" d="M824.715,573.834h9.922v14.174h0a9.922,9.922,0,0,1-9.922-9.922Z" transform="translate(-295.73 -205.768)" fill="#2f2e41"/>
    <path id="Path_95" data-name="Path 95" d="M815.3,703.292l-.709,3.544h4.961l.236-3.544Z" transform="translate(-292.099 -252.189)" fill="#a0616a"/>
    <path id="Path_96" data-name="Path 96" d="M906.863,776.448s-.945-.709-1.417-.236-2.126,9.686-2.362,9.922-7.323,3.78-5.67,4.016,8.032.472,8.977,0,3.544-4.961,3.544-4.961V789.2h.472s.472-4.252,1.654-5.433-.945-5.2-.945-5.2.472-2.6.236-2.6S906.863,776.448,906.863,776.448Z" transform="translate(-383.666 -322.51)" fill="#efe307"/>
    <path id="Path_97" data-name="Path 97" d="M838.13,699.425l-.709,3.544h4.961l.236-3.544Z" transform="translate(-300.286 -250.803)" fill="#a0616a"/>
    <path id="Path_98" data-name="Path 98" d="M926.281,725.353s2.362,7.087,2.835,7.8,2.126,13.938,2.126,13.938-1.654,2.6.472,2.835,1.181-.473,2.6,0a2.668,2.668,0,0,0,2.362-.236s.709-1.417.236-1.89.473-12.757.473-12.757l-1.417-4.252-1.181-13.465s1.417-3.543.709-4.488-3.071.709-3.071.709Z" transform="translate(-394.107 -299.764)" fill="#2f2e41"/>
    <path id="Path_99" data-name="Path 99" d="M917.081,703.788s-.709,7.56-1.181,8.032-5.67,13.7-5.67,13.7-1.417,1.654-.945,7.8,1.654,12.284,1.654,12.284-.945,3.544.709,3.544,2.362-.945,3.071-.236,1.181,0,1.417-.473a12.659,12.659,0,0,0,1.181-2.6c0-.472.945-12.52.945-12.52s7.8-17.245,8.5-18.19,4.725-6.142,4.488-9.686Z" transform="translate(-387.978 -296.625)" fill="#2f2e41"/>
    <circle id="Ellipse_20" data-name="Ellipse 20" cx="4.961" cy="4.961" r="4.961" transform="translate(530.048 365.35)" fill="#a0616a"/>
    <path id="Path_100" data-name="Path 100" d="M929.228,651.378a52.71,52.71,0,0,1,2.126,5.433c.236,1.181,4.725-2.362,4.725-2.362s-2.362-4.016-1.654-5.906Z" transform="translate(-395.164 -276.815)" fill="#a0616a"/>
    <path id="Path_101" data-name="Path 101" d="M933.524,656.3s-3.544-2.6-6.142,2.835-3.307,5.2-3.307,5.2-3.071.945-2.126,7.56-3.071,15.355-1.417,15.828,17.009,3.071,17.009,1.181-1.417-9.213-.236-13.7S935.65,655.117,933.524,656.3Z" transform="translate(-391.9 -279.373)" fill="#3f3d56"/>
    <path id="Path_102" data-name="Path 102" d="M931.985,658.487s-2.835,4.252-2.6,7.559.236,5.433.236,5.433-4.725,22.679-3.78,22.679,3.78,1.181,4.016.472S936,679.512,936,679.512s1.417-14.41-.236-17.718S931.985,658.487,931.985,658.487Z" transform="translate(-393.906 -280.381)" fill="#3f3d56"/>
    <path id="Path_103" data-name="Path 103" d="M926.193,713s-2.362,8.032.945,8.268,1.417-7.8,1.417-7.8Z" transform="translate(-393.783 -299.927)" fill="#a0616a"/>
    <path id="Path_104" data-name="Path 104" d="M931.7,770.85s-.828-.621-1.241-.207-1.862,8.482-2.069,8.689-6.413,3.31-4.965,3.517,7.034.414,7.861,0,3.1-4.344,3.1-4.344v3.517h.414s.414-3.724,1.448-4.758-.827-4.551-.827-4.551.414-2.276.207-2.276S931.7,770.85,931.7,770.85Z" transform="translate(-393.006 -320.524)" fill="#efe307"/>
    <path id="Path_105" data-name="Path 105" d="M923.434,637.567a1.38,1.38,0,0,1,.6-.423,1.249,1.249,0,0,1,.652.056,6.645,6.645,0,0,1,3.634,2.642,2.041,2.041,0,0,0,.732.792,4.312,4.312,0,0,1,.592.226c.552.365.223,1.211-.095,1.792a9.048,9.048,0,0,0-1.083,4.885,1.4,1.4,0,0,0,.248.828,1.474,1.474,0,0,0,.982.392,24.268,24.268,0,0,0,3.457.185,4.069,4.069,0,0,0,3.118-1.042,3.281,3.281,0,0,0,.152-3.447c-.512-1.1-1.345-2.024-1.937-3.086a18.1,18.1,0,0,1-1.322-3.513,14.718,14.718,0,0,0-1.953-4.357,5.841,5.841,0,0,0-3.922-2.514c-2.146-.239-4.125,1.082-5.85,2.381-1.937,1.459-4,3.263-4.154,5.683-.126,1.96,1.051,3.734,1.666,5.6.949,2.88.552,6.008.144,9.013,1.749-1.048,3.728-2.5,3.613-4.538-.077-1.373-1.114-2.47-1.759-3.685C919.173,642.094,921.2,639.854,923.434,637.567Z" transform="translate(-390.877 -270.508)" fill="#2f2e41"/>
    <path id="Path_106" data-name="Path 106" d="M1024.859,666.213a16.991,16.991,0,0,0,2.247-8.614c0-7.784-4.82-14.095-10.767-14.095s-10.767,6.31-10.767,14.095a16.991,16.991,0,0,0,2.247,8.614,17.631,17.631,0,0,0,0,17.227,17.631,17.631,0,0,0,0,17.227,17.631,17.631,0,0,0,0,17.227,16.99,16.99,0,0,0-2.247,8.613c0,7.784,4.821,14.095,10.767,14.095s10.767-6.31,10.767-14.095a16.991,16.991,0,0,0-2.247-8.614,17.63,17.63,0,0,0,0-17.227,17.631,17.631,0,0,0,0-17.227A17.63,17.63,0,0,0,1024.859,666.213Z" transform="translate(-422.54 -275.008)" fill="#3f3d56"/>
    <ellipse id="Ellipse_21" data-name="Ellipse 21" cx="10.767" cy="14.095" rx="10.767" ry="14.095" transform="translate(583.033 351.269)" fill="#3f3d56"/>
    <ellipse id="Ellipse_22" data-name="Ellipse 22" cx="10.767" cy="14.095" rx="10.767" ry="14.095" transform="translate(583.033 334.042)" fill="#3f3d56"/>
    <path id="Path_107" data-name="Path 107" d="M1033.7,381.307a51.7,51.7,0,0,0,4.01-5.9l-28.291-4.646,30.6.228a51.664,51.664,0,0,0,.985-40.865l-41.05,21.295,37.858-27.828a51.577,51.577,0,1,0-85.182,57.719,51.6,51.6,0,0,0-5.882,9.405l36.724,19.079-39.158-13.142a51.6,51.6,0,0,0,8.316,48.431,51.574,51.574,0,1,0,81.073,0,51.58,51.58,0,0,0,0-63.774Z" transform="translate(-399.598 -151.06)" fill="#f2f2f2"/>
    <path id="Path_108" data-name="Path 108" d="M941.594,477.256a51.352,51.352,0,0,0,11.037,31.887,51.573,51.573,0,1,0,81.073,0C1040.616,500.367,941.594,471.467,941.594,477.256Z" transform="translate(-399.598 -215.122)" fill="#f2f2f2"/>
    <path id="Path_109" data-name="Path 109" d="M1033.7,381.307a51.7,51.7,0,0,0,4.01-5.9l-28.291-4.646,30.6.228a51.664,51.664,0,0,0,.985-40.865l-41.05,21.295,37.858-27.828a51.577,51.577,0,1,0-85.182,57.719,51.6,51.6,0,0,0-5.882,9.405l36.724,19.079-39.158-13.142a51.6,51.6,0,0,0,8.316,48.431,51.574,51.574,0,1,0,81.073,0,51.58,51.58,0,0,0,0-63.774Z" transform="translate(-399.598 -151.06)" fill="#01923f"/>
    <path id="Path_110" data-name="Path 110" d="M941.594,477.256a51.352,51.352,0,0,0,11.037,31.887,51.573,51.573,0,1,0,81.073,0C1040.616,500.367,941.594,471.467,941.594,477.256Z" transform="translate(-399.598 -215.122)" opacity="0.1"/>
    <path id="Path_111" data-name="Path 111" d="M179.86,666.213a16.991,16.991,0,0,0,2.247-8.614c0-7.784-4.821-14.095-10.767-14.095s-10.767,6.31-10.767,14.095a16.991,16.991,0,0,0,2.247,8.614,17.631,17.631,0,0,0,0,17.227,17.631,17.631,0,0,0,0,17.227,17.631,17.631,0,0,0,0,17.227,16.991,16.991,0,0,0-2.247,8.614c0,7.784,4.82,14.095,10.767,14.095s10.767-6.31,10.767-14.095a16.991,16.991,0,0,0-2.247-8.614,17.631,17.631,0,0,0,0-17.227,17.631,17.631,0,0,0,0-17.227A17.631,17.631,0,0,0,179.86,666.213Z" transform="translate(-119.536 -275.008)" fill="#3f3d56"/>
    <ellipse id="Ellipse_23" data-name="Ellipse 23" cx="10.767" cy="14.095" rx="10.767" ry="14.095" transform="translate(41.037 351.269)" fill="#3f3d56"/>
    <ellipse id="Ellipse_24" data-name="Ellipse 24" cx="10.767" cy="14.095" rx="10.767" ry="14.095" transform="translate(41.037 334.042)" fill="#3f3d56"/>
    <path id="Path_112" data-name="Path 112" d="M188.7,381.307a51.691,51.691,0,0,0,4.01-5.9l-28.291-4.646,30.6.228A51.664,51.664,0,0,0,196,330.121l-41.05,21.295,37.858-27.828a51.577,51.577,0,1,0-85.182,57.719,51.6,51.6,0,0,0-5.882,9.405l36.724,19.079L99.315,396.649a51.6,51.6,0,0,0,8.316,48.431,51.574,51.574,0,1,0,81.073,0,51.58,51.58,0,0,0,0-63.774Z" transform="translate(-96.594 -151.06)" fill="#f2f2f2"/>
    <path id="Path_113" data-name="Path 113" d="M96.594,477.256a51.352,51.352,0,0,0,11.037,31.887,51.574,51.574,0,1,0,81.073,0C195.616,500.367,96.594,471.467,96.594,477.256Z" transform="translate(-96.594 -215.122)" fill="#f2f2f2"/>
    <path id="Path_114" data-name="Path 114" d="M188.7,381.307a51.691,51.691,0,0,0,4.01-5.9l-28.291-4.646,30.6.228A51.664,51.664,0,0,0,196,330.121l-41.05,21.295,37.858-27.828a51.577,51.577,0,1,0-85.182,57.719,51.6,51.6,0,0,0-5.882,9.405l36.724,19.079L99.315,396.649a51.6,51.6,0,0,0,8.316,48.431,51.574,51.574,0,1,0,81.073,0,51.58,51.58,0,0,0,0-63.774Z" transform="translate(-96.594 -151.06)" fill="#01923f"/>
    <path id="Path_115" data-name="Path 115" d="M96.594,477.256a51.352,51.352,0,0,0,11.037,31.887,51.574,51.574,0,1,0,81.073,0C195.616,500.367,96.594,471.467,96.594,477.256Z" transform="translate(-96.594 -215.122)" opacity="0.1"/>
    <path id="Path_116" data-name="Path 116" d="M555.729,354.556l-25.59,25.59-12.125-12.124-4.72,4.72,16.829,16.829,30.327-30.295Z" transform="translate(-184.06 -127.138)" fill="#57b894"/>
    <path id="Path_117" data-name="Path 117" d="M682.729,263.556l-25.59,25.59-12.125-12.124-4.72,4.72,16.829,16.829,30.327-30.295Z" transform="translate(-229.6 -94.507)" fill="#57b894"/>
  </g>
</svg>
